<svg width="19" height="19" viewBox="0 0 19 19" fill="none" xmlns="http://www.w3.org/2000/svg">
<path d="M10.4766 0C11.5453 0.00284986 12.0877 0.00854957 12.5561 0.0218489L12.7403 0.0284985C12.9531 0.0360982 13.1631 0.0455977 13.4167 0.0569971C14.4275 0.104495 15.1171 0.264087 15.7222 0.498725C16.3492 0.740013 16.8774 1.0668 17.4056 1.59402C17.8888 2.06874 18.2626 2.64322 18.5009 3.27734C18.7355 3.88245 18.8951 4.57212 18.9426 5.58382C18.954 5.83651 18.9635 6.04645 18.9711 6.26019L18.9768 6.44448C18.991 6.91185 18.9967 7.45428 18.9986 8.52297L18.9996 9.23164V10.4761C19.0019 11.169 18.9946 11.8619 18.9777 12.5546L18.972 12.7389C18.9644 12.9526 18.9549 13.1625 18.9435 13.4152C18.896 14.4269 18.7345 15.1156 18.5009 15.7217C18.2626 16.3558 17.8888 16.9303 17.4056 17.405C16.9308 17.8883 16.3564 18.2621 15.7222 18.5003C15.1171 18.735 14.4275 18.8946 13.4167 18.942L12.7403 18.9705L12.5561 18.9762C12.0877 18.9895 11.5453 18.9962 10.4766 18.9981L9.76795 18.999H8.52446C7.83124 19.0015 7.13803 18.9942 6.44502 18.9772L6.26073 18.9715C6.03522 18.963 5.80976 18.9531 5.58436 18.942C4.57361 18.8946 3.88394 18.735 3.27788 18.5003C2.6441 18.2619 2.06996 17.8881 1.59551 17.405C1.11193 16.9304 0.737807 16.3559 0.499265 15.7217C0.264627 15.1166 0.105035 14.4269 0.0575374 13.4152L0.0290389 12.7389L0.0242892 12.5546C0.00677785 11.8619 -0.00113927 11.169 0.00054033 10.4761V8.52297C-0.00208904 7.83008 0.00487802 7.13718 0.0214393 6.44448L0.028089 6.26019C0.0356886 6.04645 0.0451881 5.83651 0.0565875 5.58382C0.104085 4.57212 0.263677 3.8834 0.498315 3.27734C0.737413 2.64296 1.1122 2.06846 1.59646 1.59402C2.07063 1.11102 2.64444 0.737233 3.27788 0.498725C3.88394 0.264087 4.57266 0.104495 5.58436 0.0569971C5.83705 0.0455977 6.04794 0.0360982 6.26073 0.0284985L6.44502 0.0227988C7.13771 0.00592077 7.83061 -0.00136289 8.52351 0.000949883L10.4766 0ZM9.50006 4.74976C8.24035 4.74976 7.03223 5.25018 6.14147 6.14093C5.25072 7.03169 4.7503 8.23981 4.7503 9.49952C4.7503 10.7592 5.25072 11.9674 6.14147 12.8581C7.03223 13.7489 8.24035 14.2493 9.50006 14.2493C10.7598 14.2493 11.9679 13.7489 12.8587 12.8581C13.7494 11.9674 14.2498 10.7592 14.2498 9.49952C14.2498 8.23981 13.7494 7.03169 12.8587 6.14093C11.9679 5.25018 10.7598 4.74976 9.50006 4.74976ZM9.50006 6.64967C9.87431 6.6496 10.2449 6.72326 10.5907 6.86642C10.9365 7.00958 11.2507 7.21944 11.5154 7.48403C11.78 7.74862 11.99 8.06275 12.1333 8.40849C12.2766 8.75423 12.3503 9.1248 12.3504 9.49905C12.3505 9.8733 12.2768 10.2439 12.1336 10.5897C11.9905 10.9355 11.7806 11.2497 11.516 11.5143C11.2514 11.779 10.9373 11.989 10.5916 12.1323C10.2458 12.2755 9.87526 12.3493 9.50101 12.3494C8.74518 12.3494 8.02031 12.0491 7.48586 11.5147C6.95141 10.9802 6.65116 10.2554 6.65116 9.49952C6.65116 8.74369 6.95141 8.01882 7.48586 7.48437C8.02031 6.94992 8.74518 6.64967 9.50101 6.64967M14.4883 3.32483C14.1733 3.32483 13.8713 3.44994 13.6486 3.67263C13.4259 3.89531 13.3008 4.19734 13.3008 4.51227C13.3008 4.8272 13.4259 5.12923 13.6486 5.35192C13.8713 5.57461 14.1733 5.69971 14.4883 5.69971C14.8032 5.69971 15.1052 5.57461 15.3279 5.35192C15.5506 5.12923 15.6757 4.8272 15.6757 4.51227C15.6757 4.19734 15.5506 3.89531 15.3279 3.67263C15.1052 3.44994 14.8032 3.32483 14.4883 3.32483Z" fill="#1A1A1A"/>
</svg>
