<svg width="22" height="20" viewBox="0 0 22 20" fill="none" xmlns="http://www.w3.org/2000/svg">
<path d="M10.908 0C16.934 0 21.8182 3.7971 21.8182 8.48234C21.8182 13.1665 16.934 16.9636 10.9091 16.9636C10.3092 16.9626 9.70996 16.9245 9.11479 16.8496L4.53506 19.8374C4.01454 20.112 3.83064 20.0819 4.04467 19.4094L4.97142 15.5978C1.97922 14.0847 0 11.4628 0 8.48234C0 3.79814 4.88311 0 10.9091 0M17.0473 8.3528L18.5745 6.87707C18.6626 6.78577 18.7118 6.66393 18.7117 6.5372C18.7115 6.41046 18.662 6.28874 18.5737 6.19766C18.4854 6.10658 18.365 6.05326 18.238 6.04893C18.1111 6.0446 17.9873 6.08959 17.893 6.17444L15.8898 8.10822V6.51021C15.8898 6.38048 15.8382 6.25606 15.7462 6.16433C15.6543 6.0726 15.5295 6.02106 15.3995 6.02106C15.2694 6.02106 15.1447 6.0726 15.0527 6.16433C14.9607 6.25606 14.9091 6.38048 14.9091 6.51021V9.1601C14.8918 9.23581 14.8918 9.31444 14.9091 9.39016V10.8814C14.9091 11.0112 14.9607 11.1356 15.0527 11.2273C15.1447 11.319 15.2694 11.3706 15.3995 11.3706C15.5295 11.3706 15.6543 11.319 15.7462 11.2273C15.8382 11.1356 15.8898 11.0112 15.8898 10.8814V9.46892L16.3335 9.04092L17.8171 11.1478C17.8542 11.2004 17.9012 11.2452 17.9556 11.2796C18.01 11.3141 18.0707 11.3375 18.1342 11.3486C18.1977 11.3597 18.2627 11.3581 18.3256 11.3441C18.3885 11.3301 18.448 11.3039 18.5008 11.2669C18.5535 11.23 18.5984 11.1831 18.633 11.1288C18.6675 11.0745 18.691 11.014 18.7021 10.9507C18.7132 10.8874 18.7117 10.8225 18.6976 10.7597C18.6836 10.697 18.6573 10.6376 18.6202 10.585L17.0473 8.3528ZM13.974 10.3467H12.4571V6.52575C12.4513 6.40005 12.3972 6.28142 12.3059 6.19451C12.2147 6.10761 12.0934 6.05911 11.9673 6.05911C11.8411 6.05911 11.7198 6.10761 11.6286 6.19451C11.5373 6.28142 11.4832 6.40005 11.4774 6.52575V10.8358C11.4774 11.1053 11.6956 11.325 11.9667 11.325H13.974C14.1041 11.325 14.2288 11.2734 14.3208 11.1817C14.4127 11.09 14.4644 10.9656 14.4644 10.8358C14.4644 10.7061 14.4127 10.5817 14.3208 10.49C14.2288 10.3982 14.1041 10.3467 13.974 10.3467ZM7.88882 9.21606L8.61194 7.44601L9.27479 9.21502L7.88882 9.21606ZM10.5101 9.72075L10.5122 9.70417C10.5118 9.58096 10.4647 9.46246 10.3802 9.37254L9.29349 6.47083C9.24794 6.33255 9.16116 6.21143 9.04476 6.12365C8.92835 6.03588 8.78787 5.98562 8.64207 5.97961C8.49533 5.97954 8.35201 6.02375 8.23092 6.10642C8.10984 6.1891 8.01666 6.30638 7.96363 6.44285L6.23688 10.6659C6.18769 10.786 6.18835 10.9207 6.23872 11.0403C6.28909 11.1599 6.38503 11.2547 6.50545 11.3037C6.62586 11.3528 6.76088 11.3521 6.88081 11.3019C7.00073 11.2517 7.09574 11.156 7.14493 11.0358L7.48986 10.1933H9.64051L9.95012 11.0224C9.97124 11.0843 10.0046 11.1415 10.0483 11.1903C10.0919 11.2392 10.145 11.2788 10.2042 11.3069C10.2635 11.3349 10.3279 11.3508 10.3934 11.3536C10.459 11.3564 10.5244 11.3461 10.5859 11.3232C10.6474 11.3003 10.7036 11.2653 10.7513 11.2204C10.799 11.1754 10.8371 11.1213 10.8635 11.0614C10.8899 11.0015 10.9039 10.9369 10.9048 10.8714C10.9056 10.806 10.8933 10.741 10.8686 10.6804L10.5101 9.72075ZM7.05765 6.53093C7.05793 6.46671 7.04546 6.40306 7.02098 6.34366C6.9965 6.28426 6.96048 6.23027 6.915 6.18481C6.86952 6.13935 6.81547 6.10331 6.75597 6.07876C6.69647 6.05422 6.63269 6.04165 6.5683 6.04179H3.19688C3.06682 6.04179 2.94209 6.09332 2.85012 6.18505C2.75816 6.27679 2.70649 6.4012 2.70649 6.53093C2.70649 6.66066 2.75816 6.78508 2.85012 6.87681C2.94209 6.96855 3.06682 7.02008 3.19688 7.02008H4.40207V10.8918C4.40207 11.0215 4.45374 11.1459 4.5457 11.2377C4.63767 11.3294 4.7624 11.3809 4.89246 11.3809C5.02252 11.3809 5.14725 11.3294 5.23922 11.2377C5.33118 11.1459 5.38285 11.0215 5.38285 10.8918V7.02008H6.56726C6.63174 7.02035 6.69563 7.00789 6.75525 6.9834C6.81487 6.95892 6.86904 6.9229 6.91464 6.87742C6.96023 6.83195 6.99634 6.77791 7.02088 6.71844C7.04543 6.65898 7.05793 6.59525 7.05765 6.53093Z" fill="#1A1A1A"/>
</svg>
