<svg width="71" height="19" viewBox="0 0 71 19" fill="none" xmlns="http://www.w3.org/2000/svg">
<path d="M21.4305 0H22.1854C23.2293 0 24.0744 0.847775 24.0744 1.88809V9.70133C24.0744 10.7447 23.2262 11.5894 22.1854 11.5894H21.4305C20.3866 11.5894 19.5416 10.7416 19.5416 9.70133V1.88809C19.5416 0.84467 20.3897 0 21.4305 0Z" fill="black"/>
<path d="M16.7858 7.06793H13.4926C12.4519 7.06793 11.6037 6.21705 11.6037 5.17984V1.88809C11.6037 0.847775 10.7525 0 9.71482 0H8.95988C7.91911 0 7.07097 0.850881 7.07097 1.88809V5.17984C7.07097 6.22015 6.21972 7.06793 5.18206 7.06793H1.88891C0.848149 7.06793 0 7.91882 0 8.95603V9.71064C0 10.751 0.851256 11.5987 1.88891 11.5987H5.18206C6.21972 11.5987 7.07097 12.4496 7.07097 13.4868V16.7786C7.07097 17.8158 7.91911 18.6667 8.95988 18.6667H9.71482C10.7556 18.6667 11.6037 17.8158 11.6037 16.7786V13.4868C11.6037 12.4465 12.455 11.5987 13.4926 11.5987H16.7858C17.8266 11.5987 18.6747 10.7479 18.6747 9.71064V8.95603C18.6747 7.91882 17.8234 7.06793 16.7858 7.06793Z" fill="black"/>
<path d="M33.1927 2.43156C28.402 2.43156 24.8075 6.04626 24.8075 10.5025V10.546C24.8075 15.0023 28.3555 18.5704 33.1461 18.5704C37.9367 18.5704 41.5312 14.9557 41.5312 10.4994V10.456C41.5312 5.99968 37.9833 2.43156 33.1927 2.43156ZM37.1413 10.546C37.1413 12.785 35.5662 14.6918 33.1927 14.6918C30.8191 14.6918 29.2222 12.7415 29.2222 10.5025V10.4591C29.2222 8.22006 30.7973 6.31333 33.1492 6.31333C35.501 6.31333 37.1413 8.26353 37.1413 10.5025V10.546Z" fill="black"/>
<path d="M41.7329 6.51205H46.39V18.263H50.6928V6.51205H55.353V2.74207H41.7329V6.51205Z" fill="black"/>
<path d="M56.571 6.37851H64.0924L56.3069 15.1358V18.263H70.0356V14.6265H62.2501L70.0356 5.86922V2.74207H56.571V6.37851Z" fill="black"/>
</svg>
