<svg width="269" height="137" viewBox="0 0 269 137" fill="none" xmlns="http://www.w3.org/2000/svg">
<path d="M9.80022 104.4V83.6728H18.0992C19.6241 83.6728 20.8959 83.8988 21.9147 84.3509C22.9336 84.8029 23.6994 85.4304 24.2121 86.2333C24.7249 87.0295 24.9813 87.9471 24.9813 88.9862C24.9813 89.7958 24.8194 90.5077 24.4955 91.1217C24.1717 91.7289 23.7264 92.2282 23.1596 92.6195C22.5996 93.0041 21.9586 93.2774 21.2367 93.4393V93.6417C22.0261 93.6755 22.7649 93.8981 23.4531 94.3097C24.1481 94.7213 24.7114 95.2981 25.1433 96.0403C25.5751 96.7758 25.791 97.6529 25.791 98.6717C25.791 99.7715 25.5177 100.753 24.9712 101.617C24.4314 102.474 23.6319 103.152 22.5726 103.651C21.5133 104.15 20.2077 104.4 18.6559 104.4H9.80022ZM14.1825 100.817H17.7551C18.9764 100.817 19.867 100.585 20.427 100.119C20.987 99.6467 21.267 99.0192 21.267 98.2365C21.267 97.663 21.1287 97.157 20.8521 96.7184C20.5754 96.2798 20.1807 95.9357 19.6679 95.6861C19.1619 95.4365 18.558 95.3116 17.8563 95.3116H14.1825V100.817ZM14.1825 92.3463H17.4313C18.0317 92.3463 18.5648 92.2417 19.0303 92.0325C19.5026 91.8166 19.8737 91.513 20.1436 91.1217C20.4202 90.7303 20.5586 90.2614 20.5586 89.7149C20.5586 88.9659 20.292 88.3621 19.759 87.9033C19.2327 87.4444 18.4838 87.215 17.5122 87.215H14.1825V92.3463Z" fill="white"/>
<path d="M47.9177 94.0364C47.9177 96.2967 47.4893 98.2197 46.6324 99.8052C45.7823 101.391 44.6217 102.602 43.1509 103.439C41.6867 104.268 40.0404 104.683 38.2119 104.683C36.37 104.683 34.7169 104.265 33.2528 103.428C31.7886 102.592 30.6315 101.381 29.7814 99.7951C28.9312 98.2095 28.5062 96.29 28.5062 94.0364C28.5062 91.7761 28.9312 89.8532 29.7814 88.2676C30.6315 86.682 31.7886 85.4743 33.2528 84.6444C34.7169 83.8077 36.37 83.3894 38.2119 83.3894C40.0404 83.3894 41.6867 83.8077 43.1509 84.6444C44.6217 85.4743 45.7823 86.682 46.6324 88.2676C47.4893 89.8532 47.9177 91.7761 47.9177 94.0364ZM43.4747 94.0364C43.4747 92.5723 43.2554 91.3376 42.8169 90.3322C42.3851 89.3269 41.7744 88.5645 40.985 88.0449C40.1956 87.5254 39.2712 87.2656 38.2119 87.2656C37.1526 87.2656 36.2283 87.5254 35.4389 88.0449C34.6494 88.5645 34.0355 89.3269 33.5969 90.3322C33.1651 91.3376 32.9492 92.5723 32.9492 94.0364C32.9492 95.5006 33.1651 96.7353 33.5969 97.7406C34.0355 98.7459 34.6494 99.5084 35.4389 100.028C36.2283 100.547 37.1526 100.807 38.2119 100.807C39.2712 100.807 40.1956 100.547 40.985 100.028C41.7744 99.5084 42.3851 98.7459 42.8169 97.7406C43.2554 96.7353 43.4747 95.5006 43.4747 94.0364Z" fill="white"/>
<path d="M51.392 104.4V83.6728H59.5695C61.1349 83.6728 62.4708 83.9528 63.5773 84.5128C64.6906 85.0661 65.5374 85.8521 66.1176 86.8709C66.7046 87.883 66.9981 89.0739 66.9981 90.4436C66.9981 91.82 66.7013 93.0041 66.1075 93.9959C65.5138 94.981 64.6535 95.7367 63.5267 96.263C62.4067 96.7893 61.0505 97.0524 59.4582 97.0524H53.9829V93.5304H58.7497C59.5864 93.5304 60.2813 93.4157 60.8346 93.1863C61.3879 92.9569 61.7995 92.6128 62.0693 92.154C62.346 91.6952 62.4843 91.125 62.4843 90.4436C62.4843 89.7553 62.346 89.1751 62.0693 88.7028C61.7995 88.2305 61.3845 87.8729 60.8245 87.63C60.2712 87.3804 59.5729 87.2555 58.7295 87.2555H55.7742V104.4H51.392ZM62.5855 94.9675L67.737 104.4H62.8992L57.8591 94.9675H62.5855Z" fill="white"/>
<path d="M87.6599 83.6728V104.4H83.8747L74.8572 91.3544H74.7054V104.4H70.3231V83.6728H74.169L83.1157 96.7083H83.2979V83.6728H87.6599Z" fill="white"/>
<path d="M102.715 83.6728V104.4H98.3328V83.6728H102.715Z" fill="white"/>
<path d="M123.885 83.6728V104.4H120.1L111.083 91.3544H110.931V104.4H106.549V83.6728H110.394L119.341 96.7083H119.523V83.6728H123.885Z" fill="white"/>
<path d="M134.558 83.6728H139.963L145.671 97.5989H145.914L151.622 83.6728H157.026V104.4H152.776V90.9091H152.604L147.24 104.299H144.345L138.981 90.8585H138.809V104.4H134.558V83.6728Z" fill="white"/>
<path d="M164.438 104.4H159.742L166.897 83.6728H172.544L179.689 104.4H174.993L169.802 88.4093H169.64L164.438 104.4ZM164.144 96.2529H175.236V99.6737H164.144V96.2529Z" fill="white"/>
<path d="M182.412 104.4V83.6728H186.795V100.787H195.681V104.4H182.412Z" fill="white"/>
<path d="M203.193 83.6728V104.4H198.811V83.6728H203.193Z" fill="white"/>
<path d="M207.026 104.4V83.6728H215.325C216.85 83.6728 218.122 83.8988 219.141 84.3509C220.16 84.8029 220.926 85.4304 221.438 86.2333C221.951 87.0295 222.208 87.9471 222.208 88.9862C222.208 89.7958 222.046 90.5077 221.722 91.1217C221.398 91.7289 220.953 92.2282 220.386 92.6195C219.826 93.0041 219.185 93.2774 218.463 93.4393V93.6417C219.252 93.6755 219.991 93.8981 220.679 94.3097C221.374 94.7213 221.938 95.2981 222.369 96.0403C222.801 96.7758 223.017 97.6529 223.017 98.6717C223.017 99.7715 222.744 100.753 222.197 101.617C221.658 102.474 220.858 103.152 219.799 103.651C218.74 104.15 217.434 104.4 215.882 104.4H207.026ZM211.409 100.817H214.981C216.203 100.817 217.093 100.585 217.653 100.119C218.213 99.6467 218.493 99.0192 218.493 98.2365C218.493 97.663 218.355 97.157 218.078 96.7184C217.802 96.2798 217.407 95.9357 216.894 95.6861C216.388 95.4365 215.784 95.3116 215.083 95.3116H211.409V100.817ZM211.409 92.3463H214.657C215.258 92.3463 215.791 92.2417 216.257 92.0325C216.729 91.8166 217.1 91.513 217.37 91.1217C217.646 90.7303 217.785 90.2614 217.785 89.7149C217.785 88.9659 217.518 88.3621 216.985 87.9033C216.459 87.4444 215.71 87.215 214.738 87.215H211.409V92.3463Z" fill="white"/>
<path d="M238.899 83.6728H243.282V97.1334C243.282 98.6447 242.921 99.9672 242.199 101.101C241.484 102.234 240.482 103.118 239.193 103.752C237.904 104.38 236.403 104.694 234.689 104.694C232.969 104.694 231.464 104.38 230.175 103.752C228.887 103.118 227.885 102.234 227.17 101.101C226.454 99.9672 226.097 98.6447 226.097 97.1334V83.6728H230.479V96.7589C230.479 97.5483 230.651 98.25 230.995 98.864C231.346 99.478 231.839 99.9604 232.473 100.311C233.107 100.662 233.846 100.838 234.689 100.838C235.539 100.838 236.278 100.662 236.906 100.311C237.54 99.9604 238.029 99.478 238.373 98.864C238.724 98.25 238.899 97.5483 238.899 96.7589V83.6728Z" fill="white"/>
<path d="M27.914 122.457H23.4033C23.3209 121.873 23.1527 121.355 22.8987 120.902C22.6447 120.442 22.3186 120.05 21.9204 119.728C21.5222 119.405 21.0622 119.158 20.5404 118.986C20.0255 118.815 19.4659 118.729 18.8618 118.729C17.7701 118.729 16.8193 119 16.0091 119.542C15.199 120.078 14.5708 120.861 14.1245 121.89C13.6783 122.913 13.4552 124.156 13.4552 125.618C13.4552 127.122 13.6783 128.385 14.1245 129.408C14.5777 130.431 15.2093 131.203 16.0194 131.725C16.8296 132.247 17.7667 132.508 18.8309 132.508C19.4282 132.508 19.9808 132.429 20.4889 132.271C21.0038 132.113 21.4604 131.883 21.8586 131.581C22.2568 131.272 22.5863 130.898 22.8472 130.459C23.115 130.019 23.3003 129.518 23.4033 128.955L27.914 128.976C27.7973 129.944 27.5055 130.877 27.0386 131.777C26.5786 132.669 25.9573 133.469 25.1746 134.176C24.3988 134.877 23.472 135.433 22.3941 135.845C21.3231 136.25 20.1113 136.452 18.7588 136.452C16.8776 136.452 15.1956 136.027 13.7126 135.175C12.2365 134.324 11.0694 133.092 10.2112 131.478C9.35987 129.865 8.9342 127.911 8.9342 125.618C8.9342 123.318 9.36673 121.362 10.2318 119.748C11.0968 118.135 12.2709 116.906 13.7538 116.062C15.2368 115.21 16.9051 114.785 18.7588 114.785C19.9808 114.785 21.1137 114.956 22.1572 115.3C23.2076 115.643 24.1379 116.144 24.9481 116.803C25.7582 117.455 26.4173 118.255 26.9253 119.203C27.4402 120.15 27.7698 121.235 27.914 122.457Z" fill="white"/>
<path d="M33.7704 136.164H28.992L36.2729 115.073H42.0193L49.2899 136.164H44.5115L39.2285 119.893H39.0637L33.7704 136.164ZM33.4717 127.874H44.7587V131.355H33.4717V127.874Z" fill="white"/>
<path d="M51.2485 136.164V115.073H55.7076V132.487H64.7495V136.164H51.2485Z" fill="white"/>
<path d="M71.5817 115.073V136.164H67.1226V115.073H71.5817Z" fill="white"/>
<path d="M74.6705 136.164V115.073H88.635V118.749H79.1297V123.775H87.7081V127.451H79.1297V136.164H74.6705Z" fill="white"/>
<path d="M110.436 125.618C110.436 127.918 110 129.875 109.128 131.488C108.263 133.102 107.082 134.334 105.585 135.186C104.095 136.03 102.42 136.452 100.56 136.452C98.6854 136.452 97.0033 136.027 95.5135 135.175C94.0237 134.324 92.8463 133.092 91.9812 131.478C91.1161 129.865 90.6836 127.911 90.6836 125.618C90.6836 123.318 91.1161 121.362 91.9812 119.748C92.8463 118.135 94.0237 116.906 95.5135 116.062C97.0033 115.21 98.6854 114.785 100.56 114.785C102.42 114.785 104.095 115.21 105.585 116.062C107.082 116.906 108.263 118.135 109.128 119.748C110 121.362 110.436 123.318 110.436 125.618ZM105.915 125.618C105.915 124.129 105.692 122.872 105.245 121.849C104.806 120.826 104.185 120.05 103.381 119.522C102.578 118.993 101.638 118.729 100.56 118.729C99.4818 118.729 98.5412 118.993 97.738 119.522C96.9347 120.05 96.3099 120.826 95.8637 121.849C95.4243 122.872 95.2046 124.129 95.2046 125.618C95.2046 127.108 95.4243 128.365 95.8637 129.388C96.3099 130.411 96.9347 131.186 97.738 131.715C98.5412 132.244 99.4818 132.508 100.56 132.508C101.638 132.508 102.578 132.244 103.381 131.715C104.185 131.186 104.806 130.411 105.245 129.388C105.692 128.365 105.915 127.108 105.915 125.618Z" fill="white"/>
<path d="M113.159 136.164V115.073H121.48C123.073 115.073 124.432 115.358 125.558 115.928C126.691 116.491 127.553 117.291 128.143 118.327C128.74 119.357 129.039 120.569 129.039 121.963C129.039 123.363 128.737 124.568 128.133 125.577C127.528 126.58 126.653 127.349 125.507 127.884C124.367 128.42 122.987 128.687 121.367 128.687H115.795V125.103H120.646C121.497 125.103 122.204 124.987 122.767 124.753C123.33 124.52 123.749 124.17 124.024 123.703C124.305 123.236 124.446 122.656 124.446 121.963C124.446 121.262 124.305 120.672 124.024 120.191C123.749 119.711 123.327 119.347 122.757 119.1C122.194 118.846 121.483 118.719 120.625 118.719H117.618V136.164H113.159ZM124.549 126.566L129.791 136.164H124.868L119.74 126.566H124.549Z" fill="white"/>
<path d="M149.251 115.073V136.164H145.4L136.224 122.889H136.069V136.164H131.61V115.073H135.524L144.627 128.337H144.813V115.073H149.251Z" fill="white"/>
<path d="M156.815 115.073V136.164H152.355V115.073H156.815Z" fill="white"/>
<path d="M163.539 136.164H158.76L166.041 115.073H171.788L179.058 136.164H174.28L168.997 119.893H168.832L163.539 136.164ZM163.24 127.874H174.527V131.355H163.24V127.874Z" fill="white"/>
<path d="M200.176 115.073H204.635V128.77C204.635 130.308 204.268 131.653 203.533 132.807C202.805 133.96 201.786 134.859 200.475 135.505C199.163 136.143 197.636 136.462 195.892 136.462C194.141 136.462 192.61 136.143 191.299 135.505C189.987 134.859 188.968 133.96 188.24 132.807C187.512 131.653 187.149 130.308 187.149 128.77V115.073H191.608V128.389C191.608 129.192 191.783 129.906 192.133 130.531C192.49 131.155 192.991 131.646 193.636 132.003C194.282 132.36 195.034 132.539 195.892 132.539C196.757 132.539 197.509 132.36 198.147 132.003C198.792 131.646 199.29 131.155 199.64 130.531C199.997 129.906 200.176 129.192 200.176 128.389V115.073Z" fill="white"/>
<path d="M219.165 121.139C219.083 120.308 218.729 119.663 218.105 119.203C217.48 118.743 216.632 118.513 215.561 118.513C214.833 118.513 214.219 118.616 213.717 118.822C213.216 119.021 212.832 119.299 212.564 119.656C212.303 120.013 212.173 120.418 212.173 120.871C212.159 121.248 212.238 121.578 212.41 121.86C212.588 122.141 212.832 122.385 213.141 122.591C213.45 122.79 213.807 122.965 214.212 123.116C214.617 123.26 215.049 123.384 215.509 123.487L217.404 123.94C218.324 124.146 219.169 124.42 219.938 124.764C220.707 125.107 221.373 125.529 221.936 126.03C222.498 126.532 222.934 127.122 223.243 127.802C223.559 128.481 223.721 129.261 223.727 130.139C223.721 131.43 223.391 132.549 222.739 133.497C222.093 134.437 221.16 135.168 219.938 135.69C218.722 136.205 217.257 136.462 215.54 136.462C213.838 136.462 212.355 136.202 211.091 135.68C209.835 135.158 208.853 134.386 208.146 133.363C207.446 132.333 207.078 131.059 207.044 129.542H211.359C211.407 130.249 211.61 130.84 211.967 131.313C212.331 131.78 212.815 132.134 213.419 132.374C214.03 132.608 214.72 132.724 215.489 132.724C216.244 132.724 216.9 132.614 217.456 132.395C218.019 132.175 218.455 131.869 218.764 131.478C219.073 131.087 219.227 130.637 219.227 130.129C219.227 129.655 219.086 129.257 218.805 128.934C218.53 128.612 218.125 128.337 217.59 128.111C217.061 127.884 216.412 127.678 215.643 127.493L213.347 126.916C211.569 126.483 210.165 125.807 209.135 124.887C208.105 123.967 207.593 122.728 207.6 121.17C207.593 119.893 207.933 118.777 208.62 117.823C209.313 116.868 210.264 116.123 211.472 115.588C212.681 115.052 214.054 114.785 215.592 114.785C217.157 114.785 218.523 115.052 219.69 115.588C220.864 116.123 221.778 116.868 222.43 117.823C223.082 118.777 223.418 119.882 223.439 121.139H219.165Z" fill="white"/>
<path d="M229.301 136.164H224.522L231.803 115.073H237.55L244.82 136.164H240.042L234.759 119.893H234.594L229.301 136.164ZM229.002 127.874H240.289V131.355H229.002V127.874Z" fill="white"/>
<path d="M258.569 24.7773C257.169 24.7773 255.872 24.5253 254.677 24.0213C253.482 23.5173 252.437 22.8173 251.541 21.9213C250.645 21.0066 249.945 19.9519 249.441 18.7573C248.956 17.5626 248.713 16.2746 248.713 14.8933C248.713 13.5119 248.965 12.2239 249.469 11.0293C249.973 9.83461 250.673 8.78928 251.569 7.89328C252.465 6.97861 253.51 6.26928 254.705 5.76528C255.918 5.26128 257.225 5.00928 258.625 5.00928C260.025 5.00928 261.322 5.26128 262.517 5.76528C263.73 6.25061 264.776 6.94128 265.653 7.83728C266.549 8.73328 267.24 9.77861 267.725 10.9733C268.229 12.1493 268.481 13.4373 268.481 14.8373C268.481 16.2373 268.229 17.5439 267.725 18.7573C267.221 19.9519 266.512 21.0066 265.597 21.9213C264.701 22.8173 263.656 23.5173 262.461 24.0213C261.266 24.5253 259.969 24.7773 258.569 24.7773ZM262.181 20.5493L259.353 16.1813H260.865L263.693 20.5493H262.181ZM258.541 23.7413C259.81 23.7413 260.977 23.5173 262.041 23.0693C263.105 22.6026 264.038 21.9679 264.841 21.1653C265.662 20.3626 266.297 19.4199 266.745 18.3373C267.193 17.2359 267.417 16.0693 267.417 14.8373C267.417 13.5866 267.193 12.4293 266.745 11.3653C266.316 10.3013 265.7 9.36794 264.897 8.56528C264.113 7.76261 263.18 7.14661 262.097 6.71728C261.033 6.26928 259.876 6.04528 258.625 6.04528C257.356 6.04528 256.18 6.26928 255.097 6.71728C254.014 7.16528 253.072 7.79994 252.269 8.62128C251.485 9.42394 250.869 10.3573 250.421 11.4213C249.973 12.4853 249.749 13.6426 249.749 14.8933C249.749 16.1253 249.973 17.2826 250.421 18.3653C250.869 19.4293 251.485 20.3719 252.269 21.1933C253.072 21.9959 254.005 22.6213 255.069 23.0693C256.152 23.5173 257.309 23.7413 258.541 23.7413ZM254.733 20.5493V9.23728H259.101C260.501 9.23728 261.593 9.58261 262.377 10.2733C263.18 10.9453 263.581 11.8506 263.581 12.9893C263.581 14.1839 263.18 15.1173 262.377 15.7893C261.593 16.4613 260.501 16.7973 259.101 16.7973H256.189V20.5493H254.733ZM256.161 15.5653H259.017C260.006 15.5653 260.772 15.3413 261.313 14.8933C261.873 14.4453 262.153 13.8106 262.153 12.9893C262.153 12.1866 261.873 11.5706 261.313 11.1413C260.772 10.6933 260.006 10.4693 259.017 10.4693H256.161V15.5653Z" fill="white"/>
<path d="M18.2631 24.6083C21.5768 24.6083 24.2631 21.922 24.2631 18.6083V6C24.2631 2.68629 26.9494 0 30.2631 0H34.4309C37.7446 0 40.4309 2.68629 40.4309 6V18.6083C40.4309 21.922 43.1172 24.6083 46.4309 24.6083H58.5631C61.8768 24.6083 64.5631 27.2946 64.5631 30.6083V33.7285C64.5631 37.0422 61.8768 39.7284 58.5631 39.7284H46.4309C43.1172 39.7284 40.4309 42.4147 40.4309 45.7285V58.3368C40.4309 61.6505 37.7446 64.3368 34.4309 64.3368H30.2631C26.9494 64.3368 24.2631 61.6505 24.2631 58.3368V45.7285C24.2631 42.4147 21.5768 39.7284 18.2631 39.7284H6C2.68629 39.7284 0 37.0422 0 33.7284V30.6083C0 27.2946 2.68629 24.6083 6 24.6083H18.2631Z" fill="white"/>
<path d="M73.7911 39.8089C70.4774 39.8089 67.7911 37.1226 67.7911 33.8089V6.20887C67.7911 2.89516 70.4774 0.208862 73.7911 0.208862H77.2351C80.5488 0.208862 83.2351 2.89515 83.2351 6.20886V33.8089C83.2351 37.1226 80.5488 39.8089 77.2351 39.8089H73.7911Z" fill="white"/>
<path d="M114.78 63.8088C110.496 63.8088 107.544 63.1203 103.923 61.7433C100.302 60.3663 97.1397 58.4283 94.4367 55.9293C91.7847 53.3793 89.7192 50.4213 88.2402 47.0553C86.7612 43.6893 86.0217 39.9918 86.0217 35.9628C86.0217 31.9338 86.7612 28.2363 88.2402 24.8703C89.7192 21.5043 91.7847 18.5718 94.4367 16.0728C97.1397 13.5228 100.302 11.5593 103.923 10.1823C107.544 8.80532 110.496 8.11682 114.78 8.11682C119.115 8.11682 123.068 8.80532 126.638 10.1823C130.259 11.5593 133.395 13.5228 136.047 16.0728C138.699 18.5718 140.765 21.5043 142.244 24.8703C143.774 28.2363 144.539 31.9338 144.539 35.9628C144.539 39.9918 143.774 43.7148 142.244 47.1318C140.765 50.4978 138.699 53.4303 136.047 55.9293C133.395 58.4283 130.259 60.3663 126.638 61.7433C123.068 63.1203 119.115 63.8088 114.78 63.8088ZM114.78 51.2628C116.82 51.2628 118.707 50.9058 120.441 50.1918C122.226 49.4778 123.756 48.4578 125.031 47.1318C126.357 45.7548 127.377 44.1228 128.091 42.2358C128.856 40.3488 129.239 38.2578 129.239 35.9628C129.239 33.6168 128.856 32.5258 128.091 30.6898C127.377 28.8028 126.357 27.1963 125.031 25.8703C123.756 24.4933 122.226 23.4478 120.441 22.7338C118.707 22.0198 116.82 21.6628 114.78 21.6628C112.74 21.6628 111.828 22.0198 110.043 22.7338C108.309 23.4478 106.779 24.4933 105.453 25.8703C104.178 27.1963 103.158 28.8028 102.393 30.6898C101.679 32.5258 101.322 33.6168 101.322 35.9628C101.322 38.2578 101.679 40.3488 102.393 42.2358C103.158 44.1228 104.178 45.7548 105.453 47.1318C106.779 48.4578 108.309 49.4778 110.043 50.1918C111.828 50.9058 112.74 51.2628 114.78 51.2628Z" fill="white"/>
<path d="M160.928 62.8089V21.4549H145.158V9.20886H192.064V21.4549H176.372V62.8089H160.928Z" fill="white"/>
<path d="M195.528 62.8089V53.1369L227.664 15.9949L229.536 21.4549H196.23V9.20886H243.264V20.8809L211.128 56.0229L209.256 50.5629H243.434V62.8089H195.528Z" fill="white"/>
</svg>
