<svg width="18" height="18" viewBox="0 0 18 18" fill="none" xmlns="http://www.w3.org/2000/svg">
<path d="M14.25 3C14.8239 2.99997 15.3761 3.21924 15.7937 3.61296C16.2113 4.00668 16.4626 4.54508 16.4963 5.118L16.5 5.25V6.61275C16.4983 6.81531 16.4437 7.01392 16.3416 7.18888C16.2395 7.36385 16.0935 7.5091 15.918 7.61025L15.8378 7.65375C15.5951 7.77285 15.3891 7.95531 15.2417 8.18182C15.0942 8.40834 15.0106 8.67051 14.9999 8.94059C14.9891 9.21068 15.0515 9.47866 15.1805 9.71619C15.3095 9.95372 15.5003 10.152 15.7327 10.29L15.8378 10.3463C16.1625 10.5068 16.4528 10.8382 16.4948 11.2762L16.5 11.3872V12.75C16.5 13.3239 16.2808 13.8761 15.887 14.2937C15.4933 14.7113 14.9549 14.9626 14.382 14.9963L14.25 15H3.75C3.17609 15 2.62386 14.7808 2.2063 14.387C1.78874 13.9933 1.53742 13.4549 1.50375 12.882L1.5 12.75V11.3872C1.5 10.9327 1.764 10.5788 2.082 10.3898L2.16225 10.3463C2.4049 10.2271 2.61086 10.0447 2.75835 9.81818C2.90583 9.59166 2.98937 9.32949 3.00013 9.05941C3.01089 8.78932 2.94846 8.52134 2.81946 8.28381C2.69045 8.04628 2.49966 7.84802 2.26725 7.71L2.16225 7.65375C1.8375 7.49325 1.54725 7.16175 1.50525 6.72375L1.5 6.6135V5.25C1.49997 4.67609 1.71924 4.12386 2.11296 3.7063C2.50668 3.28874 3.04508 3.03742 3.618 3.00375L3.75 3H14.25ZM7.5 6.75C7.30109 6.75 7.11032 6.82902 6.96967 6.96967C6.82902 7.11032 6.75 7.30109 6.75 7.5V10.5C6.75 10.6989 6.82902 10.8897 6.96967 11.0303C7.11032 11.171 7.30109 11.25 7.5 11.25C7.69891 11.25 7.88968 11.171 8.03033 11.0303C8.17098 10.8897 8.25 10.6989 8.25 10.5V7.5C8.25 7.30109 8.17098 7.11032 8.03033 6.96967C7.88968 6.82902 7.69891 6.75 7.5 6.75Z" fill="#EE6363"/>
</svg>
