<svg width="24" height="24" viewBox="0 0 24 24" fill="none" xmlns="http://www.w3.org/2000/svg">
<path d="M6.76923 14.7692C8.29863 14.7692 9.53846 13.5294 9.53846 12C9.53846 10.4706 8.29863 9.23077 6.76923 9.23077C5.23983 9.23077 4 10.4706 4 12C4 13.5294 5.23983 14.7692 6.76923 14.7692Z" stroke="#1A1A1A" stroke-linecap="round" stroke-linejoin="round"/>
<path d="M17.2307 20C18.7601 20 19.9999 18.7602 19.9999 17.2308C19.9999 15.7014 18.7601 14.4615 17.2307 14.4615C15.7013 14.4615 14.4614 15.7014 14.4614 17.2308C14.4614 18.7602 15.7013 20 17.2307 20Z" stroke="#1A1A1A" stroke-linecap="round" stroke-linejoin="round"/>
<path d="M17.2307 9.53846C18.7601 9.53846 19.9999 8.29863 19.9999 6.76923C19.9999 5.23983 18.7601 4 17.2307 4C15.7013 4 14.4614 5.23983 14.4614 6.76923C14.4614 8.29863 15.7013 9.53846 17.2307 9.53846Z" stroke="#1A1A1A" stroke-linecap="round" stroke-linejoin="round"/>
<path d="M9.24316 10.7692L14.757 8" stroke="#1A1A1A" stroke-linecap="round" stroke-linejoin="round"/>
<path d="M9.24316 13.2308L14.757 16" stroke="#1A1A1A" stroke-linecap="round" stroke-linejoin="round"/>
</svg>
