<svg width="24" height="24" viewBox="0 0 24 24" fill="none" xmlns="http://www.w3.org/2000/svg">
<path d="M18.611 8.88888C17.5283 6.41635 14.8598 5.00003 11.9828 5.00003C8.34363 5.00003 5.35233 7.76267 5 11.3" stroke="#1A1A1A" stroke-linecap="round" stroke-linejoin="round"/>
<path d="M15.4916 9.20007H18.5794C18.6346 9.20017 18.6893 9.18938 18.7403 9.16832C18.7914 9.14726 18.8378 9.11634 18.8768 9.07733C18.9159 9.03832 18.9469 8.99199 18.9681 8.94098C18.9892 8.88997 19.0001 8.83529 19.0001 8.78007V5.7001M5.38916 15.1111C6.47182 17.5837 9.14035 19 12.0173 19C15.6565 19 18.6478 16.2373 19.0001 12.7" stroke="#1A1A1A" stroke-linecap="round" stroke-linejoin="round"/>
<path d="M8.50852 14.7999H5.42077C5.36555 14.7998 5.31086 14.8106 5.25981 14.8316C5.20876 14.8527 5.16237 14.8836 5.12329 14.9226C5.08421 14.9616 5.0532 15.008 5.03204 15.059C5.01089 15.11 5 15.1647 5 15.2199V18.2999" stroke="#1A1A1A" stroke-linecap="round" stroke-linejoin="round"/>
</svg>
