<svg width="14" height="14" viewBox="0 0 14 14" fill="none" xmlns="http://www.w3.org/2000/svg">
<mask id="path-1-inside-1_3765_31502" fill="white">
<path d="M4.56734 2.12419C4.84348 2.12419 5.06734 2.34805 5.06734 2.62419V6.38689C5.89863 6.60777 6.51168 7.3638 6.51168 8.26482C6.51149 9.16564 5.89849 9.92091 5.06734 10.1418V11.3761C5.06722 11.6522 4.84341 11.8761 4.56734 11.8761C4.29132 11.8761 4.06746 11.6521 4.06734 11.3761V10.1418C3.23625 9.92087 2.62319 9.16559 2.623 8.26482C2.623 7.36384 3.23611 6.60781 4.06734 6.38689V2.62419C4.06734 2.34808 4.29124 2.12425 4.56734 2.12419ZM9.42867 2.12419C9.7046 2.12434 9.92853 2.34826 9.92867 2.62419V3.85857C10.7596 4.07953 11.3728 4.83484 11.373 5.73552C11.3729 6.63635 10.7598 7.39251 9.92867 7.61345V11.3761C9.92853 11.6521 9.7046 11.876 9.42867 11.8761C9.15262 11.8761 8.92881 11.6522 8.92867 11.3761V7.61345C8.09752 7.39254 7.48445 6.63637 7.48433 5.73552C7.48455 4.83477 8.09759 4.07946 8.92867 3.85857V2.62419C8.92881 2.34818 9.15262 2.1242 9.42867 2.12419Z"/>
</mask>
<path d="M4.56734 2.12419C4.84348 2.12419 5.06734 2.34805 5.06734 2.62419V6.38689C5.89863 6.60777 6.51168 7.3638 6.51168 8.26482C6.51149 9.16564 5.89849 9.92091 5.06734 10.1418V11.3761C5.06722 11.6522 4.84341 11.8761 4.56734 11.8761C4.29132 11.8761 4.06746 11.6521 4.06734 11.3761V10.1418C3.23625 9.92087 2.62319 9.16559 2.623 8.26482C2.623 7.36384 3.23611 6.60781 4.06734 6.38689V2.62419C4.06734 2.34808 4.29124 2.12425 4.56734 2.12419ZM9.42867 2.12419C9.7046 2.12434 9.92853 2.34826 9.92867 2.62419V3.85857C10.7596 4.07953 11.3728 4.83484 11.373 5.73552C11.3729 6.63635 10.7598 7.39251 9.92867 7.61345V11.3761C9.92853 11.6521 9.7046 11.876 9.42867 11.8761C9.15262 11.8761 8.92881 11.6522 8.92867 11.3761V7.61345C8.09752 7.39254 7.48445 6.63637 7.48433 5.73552C7.48455 4.83477 8.09759 4.07946 8.92867 3.85857V2.62419C8.92881 2.34818 9.15262 2.1242 9.42867 2.12419Z" fill="white"/>
<path d="M4.56734 2.12419V1.12419H4.56714L4.56734 2.12419ZM5.06734 6.38689H4.06734V7.15587L4.81054 7.35335L5.06734 6.38689ZM6.51168 8.26482L7.51168 8.26502V8.26482H6.51168ZM5.06734 10.1418L4.81052 9.17531L4.06734 9.3728V10.1418H5.06734ZM5.06734 11.3761L6.06734 11.3766V11.3761H5.06734ZM4.56734 11.8761L4.56714 12.8761H4.56734V11.8761ZM4.06734 11.3761H3.06734L3.06734 11.3766L4.06734 11.3761ZM4.06734 10.1418H5.06734V9.37285L4.32422 9.17533L4.06734 10.1418ZM2.623 8.26482H1.623V8.26502L2.623 8.26482ZM4.06734 6.38689L4.3242 7.35333L5.06734 7.15582V6.38689H4.06734ZM9.42867 2.12419L9.4292 1.12419H9.42863L9.42867 2.12419ZM9.92867 2.62419H10.9287V2.62368L9.92867 2.62419ZM9.92867 3.85857H8.92867V4.62741L9.67169 4.82498L9.92867 3.85857ZM11.373 5.73552L12.373 5.73565V5.73528L11.373 5.73552ZM9.92867 7.61345L9.67176 6.64701L8.92867 6.84455V7.61345H9.92867ZM9.92867 11.3761L10.9287 11.3766V11.3761H9.92867ZM9.42867 11.8761L9.42863 12.8761H9.4292L9.42867 11.8761ZM8.92867 11.3761H7.92867V11.3766L8.92867 11.3761ZM8.92867 7.61345H9.92867V6.84452L9.18554 6.647L8.92867 7.61345ZM7.48433 5.73552L6.48433 5.73528V5.73565L7.48433 5.73552ZM8.92867 3.85857L9.18554 4.82501L9.92867 4.62749V3.85857H8.92867ZM8.92867 2.62419L7.92867 2.62368V2.62419H8.92867ZM4.56734 2.12419V3.12419C4.2912 3.12419 4.06734 2.90033 4.06734 2.62419H5.06734H6.06734C6.06734 1.79576 5.39577 1.12419 4.56734 1.12419V2.12419ZM5.06734 2.62419H4.06734V6.38689H5.06734H6.06734V2.62419H5.06734ZM5.06734 6.38689L4.81054 7.35335C5.21601 7.46109 5.51168 7.82984 5.51168 8.26482H6.51168H7.51168C7.51168 6.89776 6.58126 5.75445 5.32414 5.42042L5.06734 6.38689ZM6.51168 8.26482L5.51168 8.26461C5.51159 8.69911 5.21629 9.06748 4.81052 9.17531L5.06734 10.1418L5.32416 11.1082C6.58069 10.7743 7.51139 9.63217 7.51168 8.26502L6.51168 8.26482ZM5.06734 10.1418H4.06734V11.3761H5.06734H6.06734V10.1418H5.06734ZM5.06734 11.3761L4.06734 11.3757C4.06746 11.1002 4.29068 10.8761 4.56734 10.8761V11.8761V12.8761C5.39614 12.8761 6.06697 12.2041 6.06734 11.3766L5.06734 11.3761ZM4.56734 11.8761L4.56754 10.8761C4.8439 10.8762 5.06722 11.1 5.06734 11.3757L4.06734 11.3761L3.06734 11.3766C3.06771 12.2043 3.73875 12.876 4.56714 12.8761L4.56734 11.8761ZM4.06734 11.3761H5.06734V10.1418H4.06734H3.06734V11.3761H4.06734ZM4.06734 10.1418L4.32422 9.17533C3.91841 9.06746 3.62309 8.69902 3.623 8.26461L2.623 8.26482L1.623 8.26502C1.62329 9.63217 2.5541 10.7743 3.81046 11.1082L4.06734 10.1418ZM2.623 8.26482H3.623C3.623 7.82994 3.91869 7.46111 4.3242 7.35333L4.06734 6.38689L3.81048 5.42044C2.55353 5.75451 1.623 6.89775 1.623 8.26482H2.623ZM4.06734 6.38689H5.06734V2.62419H4.06734H3.06734V6.38689H4.06734ZM4.06734 2.62419H5.06734C5.06734 2.90056 4.84338 3.12414 4.56754 3.12419L4.56734 2.12419L4.56714 1.12419C3.73911 1.12435 3.06734 1.7956 3.06734 2.62419H4.06734ZM9.42867 2.12419L9.42814 3.12419C9.15221 3.12404 8.92881 2.90068 8.92867 2.62471L9.92867 2.62419L10.9287 2.62368C10.9282 1.79585 10.257 1.12463 9.4292 1.12419L9.42867 2.12419ZM9.92867 2.62419H8.92867V3.85857H9.92867H10.9287V2.62419H9.92867ZM9.92867 3.85857L9.67169 4.82498C10.0775 4.93289 10.3729 5.30147 10.373 5.73576L11.373 5.73552L12.373 5.73528C12.3727 4.3682 11.4418 3.22616 10.1856 2.89215L9.92867 3.85857ZM11.373 5.73552L10.373 5.73539C10.3729 6.1703 10.0771 6.53926 9.67176 6.64701L9.92867 7.61345L10.1856 8.57989C11.4424 8.24577 12.3728 7.1024 12.373 5.73565L11.373 5.73552ZM9.92867 7.61345H8.92867V11.3761H9.92867H10.9287V7.61345H9.92867ZM9.92867 11.3761L8.92867 11.3756C8.92881 11.0997 9.15224 10.8763 9.42814 10.8761L9.42867 11.8761L9.4292 12.8761C10.257 12.8757 10.9283 12.2045 10.9287 11.3766L9.92867 11.3761ZM9.42867 11.8761L9.42871 10.8761C9.70537 10.8762 9.92853 11.1002 9.92867 11.3756L8.92867 11.3761L7.92867 11.3766C7.92908 12.2041 8.59987 12.8761 9.42863 12.8761L9.42867 11.8761ZM8.92867 11.3761H9.92867V7.61345H8.92867H7.92867V11.3761H8.92867ZM8.92867 7.61345L9.18554 6.647C8.78021 6.53927 8.48439 6.17035 8.48433 5.73539L7.48433 5.73552L6.48433 5.73565C6.48451 7.1024 7.41484 8.24581 8.6718 8.57989L8.92867 7.61345ZM7.48433 5.73552L8.48433 5.73576C8.48444 5.30131 8.77979 4.93286 9.18554 4.82501L8.92867 3.85857L8.6718 2.89212C7.4154 3.22606 6.48466 4.36822 6.48433 5.73528L7.48433 5.73552ZM8.92867 3.85857H9.92867V2.62419H8.92867H7.92867V3.85857H8.92867ZM8.92867 2.62419L9.92867 2.62471C9.92853 2.9001 9.70539 3.12418 9.42871 3.12419L9.42867 2.12419L9.42863 1.12419C8.59986 1.12423 7.9291 1.79625 7.92867 2.62368L8.92867 2.62419Z" fill="#666666" mask="url(#path-1-inside-1_3765_31502)"/>
</svg>
