<svg width="22" height="22" viewBox="0 0 22 22" fill="none" xmlns="http://www.w3.org/2000/svg">
<path d="M19.4474 3H20.0746C20.9418 3 21.6438 3.72666 21.6438 4.61836V11.3154C21.6438 12.2098 20.9392 12.9338 20.0746 12.9338H19.4474C18.5802 12.9338 17.8782 12.2071 17.8782 11.3154V4.61836C17.8782 3.724 18.5828 3 19.4474 3Z" fill="white"/>
<path d="M14.3014 9.05822H11.5656C10.701 9.05822 9.99635 8.3289 9.99635 7.43986V4.61836C9.99635 3.72666 9.28916 3 8.42712 3H7.79995C6.93532 3 6.23072 3.72933 6.23072 4.61836V7.43986C6.23072 8.33156 5.52354 9.05822 4.66149 9.05822H1.92568C1.06105 9.05822 0.356445 9.78756 0.356445 10.6766V11.3234C0.356445 12.2151 1.06363 12.9418 1.92568 12.9418H4.66149C5.52354 12.9418 6.23072 13.6711 6.23072 14.5601V17.3816C6.23072 18.2707 6.93532 19 7.79995 19H8.42712C9.29174 19 9.99635 18.2707 9.99635 17.3816V14.5601C9.99635 13.6684 10.7035 12.9418 11.5656 12.9418H14.3014C15.166 12.9418 15.8706 12.2124 15.8706 11.3234V10.6766C15.8706 9.78756 15.1634 9.05822 14.3014 9.05822Z" fill="white"/>
</svg>
