<svg width="20" height="14" viewBox="0 0 20 14" fill="none" xmlns="http://www.w3.org/2000/svg">
<path d="M7.99999 9.99998L13.19 6.99999L7.99999 3.99999V9.99998ZM19.56 2.17C19.69 2.64 19.78 3.26999 19.84 4.06999C19.91 4.86999 19.94 5.55999 19.94 6.15999L20 6.99999C20 9.18999 19.84 10.8 19.56 11.83C19.31 12.73 18.73 13.31 17.83 13.56C17.36 13.69 16.5 13.78 15.18 13.84C13.88 13.91 12.69 13.94 11.59 13.94L9.99998 14C5.80999 14 3.2 13.84 2.17 13.56C1.27 13.31 0.689999 12.73 0.439999 11.83C0.31 11.36 0.22 10.73 0.16 9.92999C0.09 9.12999 0.0599999 8.43999 0.0599999 7.83999L0 6.99999C0 4.80999 0.16 3.2 0.439999 2.17C0.689999 1.27 1.27 0.689999 2.17 0.439999C2.64 0.31 3.49999 0.22 4.81999 0.16C6.11999 0.0899997 7.30999 0.0599999 8.40999 0.0599999L9.99998 0C14.19 0 16.8 0.16 17.83 0.439999C18.73 0.689999 19.31 1.27 19.56 2.17Z" fill="#1A1A1A"/>
</svg>
