<svg width="24" height="24" viewBox="0 0 24 24" fill="none" xmlns="http://www.w3.org/2000/svg">
<path d="M20 10.25V18.75C20 19.0152 19.8946 19.2696 19.7071 19.4571C19.5196 19.6446 19.2652 19.75 19 19.75H5C4.73478 19.75 4.48043 19.6446 4.29289 19.4571C4.10536 19.2696 4 19.0152 4 18.75V10.25C4 10.0948 4.03614 9.9416 4.10557 9.8028C4.175 9.66393 4.2758 9.54315 4.4 9.45L11.4 4.2C11.5731 4.07018 11.7836 4 12 4C12.2164 4 12.4269 4.07018 12.6 4.2L19.6 9.45C19.7242 9.54315 19.825 9.66393 19.8944 9.8028C19.9639 9.9416 20 10.0948 20 10.25Z" stroke="#1A1A1A" stroke-linecap="round" stroke-linejoin="round"/>
</svg>
