<svg width="24" height="24" viewBox="0 0 24 24" fill="none" xmlns="http://www.w3.org/2000/svg">
<path d="M14 13.75C17.5899 13.75 20.5 16.6601 20.5 20.25C20.5 20.5261 20.2761 20.75 20 20.75C19.7239 20.75 19.5 20.5261 19.5 20.25C19.5 17.2124 17.0376 14.75 14 14.75H10C6.96243 14.75 4.5 17.2124 4.5 20.25C4.5 20.5261 4.27614 20.75 4 20.75C3.72386 20.75 3.5 20.5261 3.5 20.25C3.5 16.6601 6.41015 13.75 10 13.75H14ZM12 3.25C14.2091 3.25 16 5.04086 16 7.25C16 9.45914 14.2091 11.25 12 11.25C9.79086 11.25 8 9.45914 8 7.25C8 5.04086 9.79086 3.25 12 3.25ZM12 4.25C10.3431 4.25 9 5.59315 9 7.25C9 8.90685 10.3431 10.25 12 10.25C13.6569 10.25 15 8.90685 15 7.25C15 5.59315 13.6569 4.25 12 4.25Z" fill="black"/>
</svg>
